<?xml version="1.0" encoding="UTF-8" standalone="no"?>
<!DOCTYPE svg PUBLIC "-//W3C//DTD SVG 1.1//EN" "http://www.w3.org/Graphics/SVG/1.1/DTD/svg11.dtd">
<svg width="100%" height="100%" viewBox="0 0 285 67" version="1.1" xmlns="http://www.w3.org/2000/svg" xmlns:xlink="http://www.w3.org/1999/xlink" xml:space="preserve" xmlns:serif="http://www.serif.com/" style="fill-rule:evenodd;clip-rule:evenodd;stroke-linejoin:round;stroke-miterlimit:2;">
    <g id="Artboard1" transform="matrix(1,0,0,1,0.195232,-64.5166)">
        <rect x="-0.195" y="64.517" width="284.469" height="66.891" style="fill:none;"/>
        <g transform="matrix(1,0,0,1,0.804768,0.516617)">
            <rect x="72.659" y="73.319" width="29.184" height="33.261" style="fill:rgb(255,191,0);"/>
        </g>
        <g transform="matrix(6.20787,0,0,6.20787,-504.022,-414.767)">
            <path d="M81.983,84.221L83.044,78.197L85.348,78.197L84.94,80.501L88.396,80.501L88.804,78.197L91.108,78.197L90.047,84.221L87.743,84.221L88.198,81.653L84.742,81.653L84.287,84.221L81.983,84.221ZM90.814,84.221L91.57,79.925L93.604,78.197L99.94,78.197L99.028,83.381L98.038,84.221L90.814,84.221ZM99.647,84.221L100,82.229L101.35,81.077L100.402,79.925L100.708,78.197L103.012,78.197L102.706,79.925L103.18,80.501L105.484,80.501L106.162,79.925L106.468,78.197L108.772,78.197L108.466,79.925L107.11,81.077L108.064,82.229L107.711,84.221L105.407,84.221L105.76,82.229L105.286,81.653L102.982,81.653L102.304,82.229L101.951,84.221L99.647,84.221ZM108.478,84.221L109.234,79.925L111.268,78.197L117.604,78.197L117.094,81.077L115.066,82.805L112.186,82.805L112.39,81.653L114.118,81.653L114.79,81.077L115.096,79.349L112.216,79.349L111.538,79.925L110.83,83.957L116.59,83.957L116.543,84.221L108.478,84.221ZM118.149,84.221L117.454,83.381L118.372,78.197L120.676,78.197L119.758,83.381L120.238,83.957L123.118,83.957L124.132,78.197L126.436,78.197L125.374,84.221L118.149,84.221ZM125.349,84.363L125.289,84.705L118.549,84.705L118.266,84.363L125.349,84.363ZM116.518,84.363L116.458,84.705L108.393,84.705L108.453,84.363L116.518,84.363ZM107.686,84.363L107.626,84.705L105.322,84.705L105.382,84.363L107.686,84.363ZM101.926,84.363L101.866,84.705L99.562,84.705L99.622,84.363L101.926,84.363ZM97.872,84.363L97.47,84.705L90.729,84.705L90.789,84.363L97.872,84.363ZM90.022,84.363L89.961,84.705L87.658,84.705L87.718,84.363L90.022,84.363ZM84.262,84.363L84.202,84.705L81.897,84.705L81.958,84.363L84.262,84.363ZM96.046,83.957L96.724,83.381L97.432,79.349L94.552,79.349L93.874,79.925L93.166,83.957L96.046,83.957ZM84.177,84.846L84.13,85.109L81.826,85.109L81.873,84.846L84.177,84.846ZM125.264,84.846L125.116,85.685L123.082,87.413L116.746,87.413L116.95,86.261L122.134,86.261L122.812,85.685L122.914,85.109L118.882,85.109L118.665,84.846L125.264,84.846ZM116.433,84.846L116.386,85.109L108.322,85.109L108.368,84.846L116.433,84.846ZM107.601,84.846L107.554,85.109L105.25,85.109L105.297,84.846L107.601,84.846ZM101.841,84.846L101.794,85.109L99.49,85.109L99.537,84.846L101.841,84.846ZM97.303,84.846L96.994,85.109L90.658,85.109L90.704,84.846L97.303,84.846ZM89.937,84.846L89.89,85.109L87.586,85.109L87.633,84.846L89.937,84.846Z"/>
        </g>
        <g transform="matrix(1,0,0,1,-93.3787,25.8214)">
            <path d="M99.43,100.105L102.654,100.105L103.95,95.767L102.654,91.429L99.43,91.429L99.43,100.105ZM104.047,102.265L97.486,102.265L97.486,89.269L104.047,89.269L104.274,90.007L105.894,95.425L105.991,95.767L105.894,96.109L104.274,101.527L104.047,102.265Z" style="fill-rule:nonzero;"/>
            <rect x="134.033" y="89.269" width="1.944" height="12.996" style="fill-rule:nonzero;"/>
            <path d="M164.084,89.269L172.541,89.269L172.541,91.429L166.028,91.429L166.028,100.105L170.597,100.105L170.597,96.865L168.329,96.847L167.357,96.847L167.357,94.687L168.329,94.687L171.569,94.705L172.541,94.705L172.541,102.265L164.084,102.265L164.084,89.269Z" style="fill-rule:nonzero;"/>
            <rect x="201.279" y="89.269" width="1.944" height="12.996" style="fill-rule:nonzero;"/>
            <path d="M233.955,91.429L230.682,91.429L230.682,89.269L239.139,89.269L239.139,91.429L235.899,91.429L235.899,102.265L233.955,102.265L233.955,91.429Z" style="fill-rule:nonzero;"/>
            <path d="M273.742,94.687L273.742,91.429L269.174,91.429L269.174,94.687L273.742,94.687ZM273.742,96.847L269.174,96.847L269.174,102.265L267.23,102.265L267.23,89.269L275.686,89.269L275.686,102.265L273.742,102.265L273.742,96.847Z" style="fill-rule:nonzero;"/>
            <path d="M304.425,102.265L304.425,89.269L306.369,89.269L306.369,100.105L312.249,100.105L312.249,102.265L304.425,102.265Z" style="fill-rule:nonzero;"/>
        </g>
        <g transform="matrix(1,0,0,1,188.039,-28.3033)">
            <path d="M82.553,156.408L82.553,152.076L83.201,152.076L83.201,155.688L85.161,155.688L85.161,156.408L82.553,156.408Z" style="fill-rule:nonzero;"/>
            <path d="M86.754,153.396L87.327,153.396L87.327,154.116L86.754,154.116L86.754,155.688L87.327,155.688L87.327,156.408L86.106,156.408L86.106,154.116L85.912,154.116L85.912,153.396L86.106,153.396L86.106,151.866L86.754,151.866L86.754,153.396Z" style="fill-rule:nonzero;"/>
            <path d="M90.135,151.866L90.135,156.408L88.072,156.408L88.072,153.396L89.487,153.396L89.487,151.866L90.135,151.866ZM89.487,154.116L88.72,154.116L88.72,155.688L89.487,155.688L89.487,154.116Z" style="fill-rule:nonzero;"/>
            <rect x="91.096" y="155.688" width="0.653" height="0.72" style="fill-rule:nonzero;"/>
        </g>
    </g>
</svg>
